<svg width="25" height="23" viewBox="0 0 25 23" xmlns="http://www.w3.org/2000/svg"><title>0B6FF538-687B-46B1-9303-DA20BE01B03A</title><path d="M11.692 4.336c.15.199.303.397.455.595l.21.275.104.135.134-.104c.223-.174.37-.397.51-.613.064-.097.124-.189.19-.275 1.279-1.675 2.8-2.467 4.652-2.422 1.392.035 2.76.683 3.752 1.78 1 1.104 1.513 2.544 1.407 3.949-.137 1.826-.845 3.537-2.228 5.387-1.185 1.585-2.986 3.613-7.36 6.643a4.397 4.397 0 0 0-.319.252c-.237.2-.482.405-.7.388-.235-.019-.49-.223-.738-.42-.1-.08-.206-.164-.31-.236-2.136-1.474-4.862-3.51-7.005-6.197-1.294-1.622-2.092-3.214-2.442-4.867-.344-1.631.037-3.29 1.047-4.551C4.134 2.702 5.774 1.945 7.67 1.92c1.449.043 2.878.9 4.023 2.415zm13.302 2.011c-.039-.139-.076-.282-.112-.42-.078-.301-.16-.613-.262-.915-.811-2.41-2.738-4.197-5.153-4.778a7.146 7.146 0 0 0-3.496.038 7.26 7.26 0 0 0-3.237 1.86c-.216.211-.243.211-.468-.002-1.05-.992-2.187-1.646-3.378-1.943C7.653-.12 6.349-.048 5.012.402c-1.354.456-2.458 1.18-3.283 2.15C.913 3.511.363 4.72.093 6.147c-.005.027-.024.064-.043.102-.013.026-.025.051-.036.077L0 6.358v2.001l.018.036c.012.024.026.046.038.065.01.017.025.042.027.049.259 1.966 1.076 3.797 2.571 5.76 1.199 1.573 2.644 3.046 4.418 4.504 1.767 1.45 3.662 2.718 5.116 3.659.11.071.211.099.304.099a.666.666 0 0 0 .357-.125c2.422-1.548 5.54-3.689 8.164-6.533 1.9-2.061 3.054-3.974 3.63-6.022.097-.34.173-.689.248-1.026.033-.154.068-.313.105-.468L25 8.338V6.37l-.006-.022z" fill="#222" fill-rule="evenodd"/></svg>