<svg width="18" height="23" viewBox="0 0 18 23" xmlns="http://www.w3.org/2000/svg"><title>88A3E0CA-F376-4C5B-A5D5-913F3AA79D8F</title><path d="M11.243 5.627v.021h-.011c-.34-.007-.682-.008-1.02-.008a185.062 185.062 0 0 0-1.222.002H6.763c.005-.22 0-.44-.003-.654-.008-.416-.015-.809.038-1.203.145-1.067 1.01-1.86 2.104-1.929 1.018-.063 1.989.655 2.258 1.67.077.293.081.607.08.903l-.002.2c-.003.327-.006.664.005.998M4.92 8.79v.47c0 .635.36 1.048.914 1.05a.882.882 0 0 0 .64-.248c.188-.187.287-.46.287-.79l.001-.443c.001-.44.002-.893-.004-1.341 1.538.005 3.046.005 4.483 0a104.091 104.091 0 0 0-.003 1.852c0 .556.38.964.904.97a.91.91 0 0 0 .661-.254.985.985 0 0 0 .276-.708l.001-.306a86.44 86.44 0 0 0-.004-1.555c1.05.009 2.087.01 3.08 0-.004 3.346-.004 6.747-.004 10.035v1.827l-.001.505c-.001.425-.003.866.005 1.3-1.912-.006-3.855-.005-5.734-.005H8.79v.001H7.587c-1.882 0-3.829 0-5.743.005a6454.15 6454.15 0 0 0 0-13.67h.024c.916.011 1.888.012 3.056.002-.007.435-.006.876-.004 1.303m13.075 1.09V6.611c0-.588-.382-.968-.974-.968l-.707-.001c-1.056-.001-2.147-.003-3.221.005h-.018a.87.87 0 0 1 0-.017c.002-.146.005-.291.01-.437.012-.5.025-1.018-.029-1.527A4.056 4.056 0 0 0 11.512.87 4.135 4.135 0 0 0 8.39.042a4.066 4.066 0 0 0-2.44 1.344c-.655.737-1.02 1.656-1.027 2.586-.005.538-.008 1.11.002 1.674-.972-.006-1.961-.005-2.917-.005H1.002c-.303 0-.554.091-.729.264-.175.174-.268.426-.268.728v3.185C.006 13.776.007 17.87 0 21.895c-.001.547.218.903.668 1.089l.04.016h16.584l.04-.016c.45-.184.669-.54.668-1.089-.007-4.005-.006-8.077-.005-12.015" fill="#222" fill-rule="evenodd"/></svg>